<svg version="1.1" id="Layer_1" xmlns="http://www.w3.org/2000/svg" xmlns:xlink="http://www.w3.org/1999/xlink" x="0px" y="0px"
	 width="100%" viewBox="0 0 512 512" enable-background="new 0 0 512 512" xml:space="preserve">
<path fill="#F2F2F3" opacity="1.000000" stroke="none" 
	d="
M86.000000,0.999999 
	C100.020897,1.000000 114.041786,1.000000 128.516815,1.429645 
	C129.857880,6.472196 127.750015,8.872994 123.582680,10.839253 
	C115.146179,14.819817 107.034912,19.484743 98.739159,23.769962 
	C90.647232,27.949896 82.493874,32.010998 74.364983,36.119301 
	C58.584221,44.094818 42.801704,52.066860 26.730518,60.019356 
	C26.050171,60.348221 25.659218,60.698067 25.148335,61.499683 
	C25.019047,68.435242 25.186821,74.925087 24.965193,81.401611 
	C24.425831,97.163010 34.899502,105.499245 45.686420,109.778275 
	C56.244766,113.966637 67.163773,113.283188 77.222359,106.243507 
	C84.543106,101.119957 89.841415,95.084991 91.421265,86.348740 
	C93.019005,100.425842 108.844246,110.808281 122.566002,112.108330 
	C135.842133,113.366150 155.625870,102.494049 158.827118,87.309769 
	C160.919678,98.567223 168.554581,105.399567 177.678467,109.202080 
	C194.380936,116.163078 209.580276,111.352295 220.317245,97.223724 
	C222.233734,94.701859 222.904709,91.233467 224.342957,88.103645 
	C224.535141,88.005180 224.907394,87.786217 225.046295,88.131866 
	C229.056870,101.540222 239.109451,107.816246 251.220734,111.092743 
	C259.769806,113.405540 267.718719,111.489403 275.861694,107.044731 
	C284.490021,102.335136 289.683777,96.102524 292.257843,87.248260 
	C295.645935,100.711418 304.925262,107.876366 317.219330,111.031822 
	C327.289734,113.616531 336.989441,112.063759 345.713959,105.381767 
	C352.355042,100.295425 357.172516,94.437851 358.495605,86.286407 
	C360.541992,98.957634 369.838531,105.624367 379.716400,109.693840 
	C398.420319,117.399460 421.762421,106.898018 425.816589,86.364304 
	C427.509094,97.988518 435.170929,105.127083 444.474060,109.023750 
	C462.165131,116.433746 478.312378,110.991035 488.691284,95.355759 
	C490.716339,92.305092 492.522736,88.540680 492.765930,84.991455 
	C493.310242,77.047256 492.806732,69.031273 492.612305,60.746605 
	C491.651947,60.322613 490.809235,60.196548 489.747131,59.803505 
	C474.126434,52.159897 458.675232,44.885197 443.336914,37.379845 
	C425.678802,28.739363 408.219391,19.686148 390.453949,11.276291 
	C385.611938,8.984166 382.770233,6.567459 384.000000,1.000000 
	C398.354218,1.000000 412.708466,1.000000 427.610840,1.369294 
	C428.486755,2.093096 428.765900,2.690484 429.149292,2.767197 
	C446.938416,6.326843 463.636841,12.106214 476.542419,25.741571 
	C483.109711,32.680244 490.260193,39.154549 496.152588,46.623337 
	C504.412659,57.093204 507.888519,69.853363 510.989807,82.632454 
	C511.284332,83.846115 512.312439,84.881729 513.000000,86.000000 
	C513.000000,199.687561 513.000000,313.375122 512.630737,427.610840 
	C511.906952,428.486786 511.310028,428.765686 511.232666,429.149323 
	C507.646973,446.925629 501.985962,463.674103 488.263641,476.547485 
	C481.296143,483.083984 474.845642,490.259979 467.376831,496.152435 
	C456.906921,504.412506 444.146667,507.888336 431.367554,510.989777 
	C430.153870,511.284332 429.118256,512.312439 428.000000,513.000000 
	C314.312439,513.000000 200.624878,513.000000 86.389153,512.630737 
	C85.513206,511.906921 85.234306,511.310089 84.850632,511.232697 
	C67.074326,507.647003 50.325844,501.985931 37.452477,488.263611 
	C30.915976,481.296112 23.739908,474.845642 17.847498,467.376831 
	C9.587406,456.906921 6.111475,444.146729 3.010200,431.367554 
	C2.715665,430.153900 1.687548,429.118286 1.000000,428.000000 
	C1.000000,314.312439 1.000000,200.624878 1.369289,86.389145 
	C2.093095,85.513206 2.689930,85.234314 2.767320,84.850639 
	C6.352975,67.074409 12.013972,50.325985 25.736263,37.452663 
	C32.703785,30.916210 39.117207,23.682003 46.632023,17.861902 
	C57.138565,9.724756 69.809898,6.005781 82.632584,3.008736 
	C83.845299,2.725288 84.881729,1.687546 86.000000,0.999999 
M261.877411,177.150513 
	C264.661896,176.976257 267.446350,176.802002 269.880127,177.528397 
	C269.880127,180.252380 269.880127,182.976364 269.880127,185.612091 
	C273.474304,185.612091 276.235901,185.612091 279.275024,185.612091 
	C279.275024,182.678757 279.275024,179.963654 279.275024,176.779251 
	C276.012573,176.779251 273.052368,176.779251 270.022461,175.951767 
	C269.988708,173.301117 269.954956,170.650482 270.751068,168.451599 
	C273.536774,168.451599 276.322479,168.451599 279.283478,168.451599 
	C279.283478,153.704453 279.283478,139.453308 279.283478,125.008362 
	C270.420258,125.008362 261.806793,125.008362 252.998978,125.008362 
	C252.816254,127.700256 252.642761,130.256119 252.444260,133.180496 
	C246.368500,133.180496 240.609787,133.180496 234.898560,133.180496 
	C234.898560,136.294495 234.898560,138.992294 234.898560,142.113464 
	C241.068176,142.113464 246.806747,142.113464 252.598511,142.113464 
	C252.598511,145.367874 252.598511,148.187561 251.585892,151.136108 
	C246.030197,151.136108 240.474487,151.136108 234.862732,151.136108 
	C234.862732,154.425964 234.862732,157.112198 234.862732,160.227905 
	C238.129257,160.227905 241.013824,160.227905 244.043777,160.227905 
	C244.043777,163.298477 244.043777,165.931885 243.171600,168.334778 
	C240.404144,168.334778 237.636703,168.334778 234.731888,168.334778 
	C234.731888,174.448441 234.731888,179.997345 234.731888,185.947983 
	C238.031189,185.947983 241.003860,185.947983 244.012497,186.849350 
	C243.852615,189.439117 243.692749,192.028885 242.768158,195.078735 
	C234.366089,195.078735 225.964035,195.078735 217.059509,195.078735 
	C217.269852,198.554306 217.436783,201.312866 216.640472,203.884781 
	C214.184311,203.884781 211.728149,203.884781 208.656891,203.884781 
	C208.656891,200.727570 208.656891,198.031265 208.656891,195.397644 
	C193.792526,195.397644 179.551178,195.397644 165.284927,195.397644 
	C165.284927,198.357468 165.284927,201.058655 165.284927,204.187469 
	C171.029282,204.187469 176.425140,204.187469 181.738159,204.187469 
	C181.738159,207.074783 181.738159,209.518097 181.738159,212.411346 
	C176.128372,212.411346 170.722061,212.411346 165.260651,212.411346 
	C165.260651,218.415207 165.260651,223.958511 165.260651,229.882416 
	C168.002487,229.882416 170.419907,229.882416 173.344757,229.882416 
	C173.344757,233.152771 173.344757,236.047913 173.344757,238.941040 
	C179.299957,238.941040 184.732513,238.941040 190.401352,238.941040 
	C190.569138,235.829712 190.724854,232.942245 190.875488,230.148895 
	C194.159744,230.148895 197.034012,230.148895 200.211395,230.148895 
	C200.211395,233.274139 200.211395,236.044434 200.211395,238.803802 
	C203.235092,238.803802 205.929413,238.803802 209.264542,238.803802 
	C209.264542,232.481186 209.264542,226.535049 209.181580,220.631134 
	C209.181580,220.631134 209.151215,220.719162 210.025360,221.018860 
	C221.363403,220.987686 232.701447,220.956528 244.006577,221.867889 
	C244.006577,224.438644 244.006577,227.009399 244.006577,229.906586 
	C234.682083,229.906586 226.071976,229.906586 217.579147,229.906586 
	C217.579147,233.166428 217.579147,236.065079 217.579147,239.423508 
	C223.351776,239.423508 228.762421,239.423508 234.655457,239.423508 
	C234.655457,245.296906 234.655457,250.705307 234.655457,256.523651 
	C238.127930,256.523651 241.102554,256.523651 244.027359,257.491547 
	C244.027359,259.923523 244.027359,262.355499 244.027359,265.196411 
	C240.560486,265.196411 237.661438,265.196411 234.777740,265.196411 
	C234.777740,280.003845 234.777740,294.389679 234.777740,308.731506 
	C238.000885,308.731506 240.917908,308.731506 244.205032,308.731506 
	C244.205032,303.049042 244.205032,297.632446 244.205032,292.184448 
	C247.541290,292.184448 250.494705,292.184448 253.365417,292.103485 
	C253.365417,292.103485 253.280182,292.049927 252.818161,292.875061 
	C252.818161,298.141998 252.818161,303.408905 252.818161,308.753571 
	C255.840820,308.753571 258.420502,308.753571 261.466736,308.753571 
	C261.466736,305.932983 261.466736,303.365753 261.466736,300.729858 
	C264.500153,300.729858 267.057404,300.729858 269.745605,300.729858 
	C269.880859,303.624420 270.001556,306.206848 270.119049,308.721130 
	C273.391846,308.721130 276.293793,308.721130 279.373047,308.721130 
	C279.503540,305.868774 279.621490,303.290314 279.735199,300.804871 
	C285.656708,300.804871 291.042084,300.804871 296.719116,300.804871 
	C296.719116,303.669373 296.719116,306.138000 296.719116,309.007141 
	C302.806946,309.007141 308.593445,309.007141 314.379913,309.007141 
	C320.154572,309.007141 325.929260,309.007141 331.703064,309.007141 
	C331.703064,302.997742 331.703064,297.456146 331.703064,291.628387 
	C328.907867,291.628387 326.451599,291.628387 323.803558,291.628387 
	C323.803558,288.758453 323.803558,286.188812 323.803558,283.390961 
	C326.638977,283.246429 329.207001,283.115479 332.173035,282.964264 
	C332.173035,279.714874 332.173035,276.792175 332.173035,273.674652 
	C335.421661,273.674652 338.244751,273.674652 340.746979,274.607697 
	C340.746979,277.346466 340.746979,280.085266 340.746979,282.789307 
	C343.812408,282.789307 346.243378,282.789307 348.664612,282.789307 
	C348.664612,279.542480 348.664612,276.519043 348.664612,273.087952 
	C345.829834,273.352051 343.401031,273.578339 340.857239,272.815399 
	C340.857239,270.364655 340.857239,267.913910 340.857239,265.217194 
	C337.685272,265.052094 334.972717,264.910919 331.934387,264.752777 
	C331.934387,259.017914 331.934387,253.614929 331.934387,248.213699 
	C325.721008,248.213699 319.875519,248.213699 313.675201,248.213699 
	C313.675201,253.954376 313.675201,259.359222 313.675201,265.075714 
	C310.850342,264.936127 308.396179,264.814880 305.321259,264.105774 
	C305.321259,261.550446 305.321259,258.995117 305.321259,256.491760 
	C302.017029,256.491760 299.585846,256.491760 296.973145,256.491760 
	C296.973145,259.426483 296.973145,262.141937 296.973145,265.246429 
	C300.230743,265.005829 303.167358,264.788940 305.291229,265.220642 
	C305.159363,271.218658 305.027496,277.216644 304.978302,283.172852 
	C304.978302,283.172852 305.021973,283.091125 304.098846,283.103333 
	C301.687958,283.103333 299.277100,283.103333 296.605194,283.103333 
	C296.605194,279.621918 296.605194,276.849335 296.605194,273.830383 
	C293.733612,273.675476 291.118866,273.534454 288.311707,273.383026 
	C288.147461,270.542023 287.990051,267.819733 287.844086,265.295288 
	C284.837830,265.295288 282.262115,265.295288 279.192383,265.295288 
	C279.192383,268.158478 279.192383,270.725006 279.192383,273.416229 
	C275.921722,273.416229 273.166626,273.416229 270.201477,273.416229 
	C270.041351,270.526520 269.890106,267.797333 269.721375,264.752258 
	C266.720947,264.752258 264.132080,264.752258 261.608093,264.752258 
	C261.608093,261.848633 261.608093,259.310120 261.608093,256.581879 
	C264.558105,256.449158 267.151489,256.332489 269.942139,256.206940 
	C269.942139,253.240967 269.942139,250.596207 270.892365,247.939682 
	C273.789612,247.937073 276.686859,247.934464 279.414917,248.814651 
	C279.414917,251.218781 279.414917,253.622910 279.414917,256.166962 
	C282.588135,256.166962 285.140350,256.166962 287.859375,256.166962 
	C287.859375,253.393784 287.859375,250.842957 287.859375,248.033951 
	C284.912231,248.033951 282.164154,248.033951 279.508972,247.099167 
	C279.508972,241.488480 279.508972,235.877792 279.508972,230.168884 
	C285.468933,230.168884 290.985809,230.168884 296.933960,230.168884 
	C296.933960,236.281830 296.933960,242.015884 296.933960,247.587326 
	C299.957001,247.587326 302.526764,247.587326 304.953217,247.587326 
	C304.953217,230.001404 304.953217,212.767807 304.953217,195.441040 
	C302.114777,195.441040 299.569946,195.441040 296.592468,195.441040 
	C296.592468,198.318314 296.592468,200.916901 296.592468,203.588882 
	C293.569916,203.588882 290.991608,203.588882 288.008057,203.588882 
	C288.008057,200.727585 288.008057,198.139954 288.008057,195.398010 
	C285.025452,195.398010 282.459106,195.398010 279.621429,195.398010 
	C279.458527,198.219635 279.308563,200.817490 279.147491,203.607880 
	C276.079224,203.607880 273.183350,203.607880 269.891479,203.607880 
	C269.891479,200.757507 269.891479,198.169662 269.891479,195.531891 
	C266.787201,195.531891 264.095154,195.531891 261.252625,195.531891 
	C261.252625,201.212387 261.252625,206.515915 261.332733,211.787277 
	C261.332733,211.787277 261.361816,211.705994 260.572662,212.267883 
	C258.030151,212.363556 255.487656,212.459213 252.814011,211.588028 
	C252.814011,209.138672 252.814011,206.689316 252.814011,204.031830 
	C249.488861,204.031830 246.695587,204.031830 244.095612,203.101044 
	C243.893173,200.258545 243.690735,197.416046 244.369431,195.180649 
	C247.079346,195.180649 249.789276,195.180649 252.946793,195.180649 
	C252.946793,191.767044 252.946793,188.871994 253.843597,185.816376 
	C256.223450,185.816376 258.603333,185.816376 260.994354,185.816376 
	C260.994354,182.409195 260.994354,179.663208 261.877411,177.150513 
M340.757599,203.157913 
	C340.757599,200.571945 340.757599,197.985992 340.757599,195.365082 
	C337.507172,195.365082 334.920135,195.365082 332.069244,195.365082 
	C332.069244,198.401276 332.069244,201.191162 331.153900,203.884186 
	C328.722290,203.884186 326.290680,203.884186 323.761963,203.884186 
	C323.571411,200.697861 323.415771,198.095291 323.255920,195.422501 
	C320.040466,195.422501 317.147552,195.422501 314.153809,195.422501 
	C314.153809,204.053314 314.153809,212.412415 314.153809,220.824402 
	C317.363373,220.824402 320.287689,220.824402 323.314178,220.824402 
	C323.473328,218.033691 323.620453,215.453552 323.791718,212.450333 
	C326.822845,212.450333 329.445343,212.450333 331.996429,213.461029 
	C331.996429,218.849915 331.996429,224.238800 331.996429,229.418152 
	C338.132660,229.418152 343.503723,229.418152 348.793945,229.418152 
	C348.793945,226.455338 348.793945,223.866333 348.793945,220.818848 
	C345.995789,220.818848 343.441376,220.818848 340.964294,220.818848 
	C340.791046,217.871002 340.645721,215.398102 341.470520,212.902100 
	C343.911713,212.902100 346.352875,212.902100 348.793579,212.902100 
	C348.793579,209.582855 348.793579,206.863052 348.793579,204.038773 
	C345.811737,204.038773 343.165527,204.038773 340.757599,203.157913 
M279.770599,456.809174 
	C279.629791,456.706421 279.488983,456.603699 279.265167,455.638458 
	C279.265167,450.521240 279.265167,445.403992 279.265167,440.264343 
	C276.737640,440.264343 274.698639,440.264343 272.710815,440.264343 
	C272.710815,456.197601 272.710815,471.741486 272.710815,487.322815 
	C274.996063,487.322815 276.921936,487.322815 279.235992,487.322815 
	C279.235992,481.438080 279.156097,475.811462 279.257324,470.188110 
	C279.369843,463.935974 282.515472,460.420898 287.613586,460.603821 
	C292.474426,460.778259 294.742310,463.692169 294.789948,469.967743 
	C294.833649,475.731567 294.799225,481.496002 294.799225,487.599945 
	C297.123444,487.493988 298.850128,487.415283 300.776550,487.327484 
	C300.776550,481.134918 300.804443,475.494019 300.770966,469.853455 
	C300.692169,456.564514 291.963470,451.199921 279.770599,456.809174 
M118.777061,366.276855 
	C113.206314,381.713684 115.507759,396.390289 124.584198,409.567627 
	C138.926300,430.389832 169.115540,434.430267 189.231827,418.611115 
	C192.854706,415.762115 194.955887,415.024811 199.083008,418.347382 
	C221.353531,436.276520 255.461166,428.743500 267.200500,403.813995 
	C268.997131,399.998627 268.448853,397.964966 264.375793,396.722321 
	C259.284180,395.168915 254.207886,393.527954 249.236099,391.633209 
	C246.370819,390.541260 244.694916,391.360596 242.827133,393.595642 
	C237.371811,400.123688 228.206421,402.766602 220.841309,400.252136 
	C212.649628,397.455475 208.273071,390.811096 207.742188,381.032532 
	C207.219421,371.403778 205.082565,362.045197 198.816757,354.508514 
	C185.773148,338.819397 164.896255,330.703339 143.736526,339.666321 
	C131.846924,344.702606 123.198181,353.024536 118.777061,366.276855 
M308.745514,394.590851 
	C311.774994,403.660645 316.036591,411.500854 323.854431,417.913422 
	C346.168579,436.216614 383.329468,429.486359 394.700348,401.131195 
	C402.021973,382.873505 399.287567,366.420990 386.993073,351.705200 
	C375.652405,338.131165 355.941223,333.303009 339.209900,338.962555 
	C330.852142,341.789612 330.206207,342.679871 330.208038,351.369110 
	C330.210602,363.239410 330.210602,363.239410 318.329590,363.279297 
	C312.873566,363.297607 310.222229,365.308594 308.759247,370.598633 
	C306.627167,378.308136 306.506256,386.042542 308.745514,394.590851 
M284.998535,426.461456 
	C288.494019,426.461761 291.989502,426.466064 295.484985,426.461517 
	C301.901978,426.453186 302.019653,426.343445 302.020721,420.133636 
	C302.023865,401.657593 302.015594,383.181519 302.032410,364.705475 
	C302.033722,363.267822 302.195221,361.830292 302.304260,360.029144 
	C308.768494,360.029144 314.900970,359.880829 321.021515,360.086792 
	C324.493561,360.203613 325.934875,358.756775 325.933411,355.457855 
	C325.931488,351.130371 325.770935,346.792389 326.019562,342.478577 
	C326.241882,338.620514 324.467224,337.613831 320.956512,337.628906 
	C300.649872,337.716278 280.342499,337.637573 260.036041,337.741638 
	C258.576630,337.749115 257.122375,338.764221 255.665756,339.310852 
	C256.428833,340.826202 256.927246,342.572083 258.006927,343.811646 
	C260.727386,346.934937 264.143707,349.528503 266.480560,352.890808 
	C269.593109,357.369202 272.191406,361.990662 279.276398,359.784241 
	C279.276398,362.195801 279.276520,363.817322 279.276367,365.438843 
	C279.274933,383.914886 279.325012,402.391205 279.226959,420.866730 
	C279.208130,424.414581 279.890350,426.849640 284.998535,426.461456 
M225.977661,294.494934 
	C225.977661,279.070190 225.977661,263.645416 225.977661,248.091217 
	C205.441284,248.091217 185.394440,248.091217 165.275970,248.091217 
	C165.275970,268.486115 165.275970,288.662140 165.275970,308.706116 
	C185.653519,308.706116 205.703186,308.706116 225.977661,308.706116 
	C225.977661,304.102478 225.977661,299.796997 225.977661,294.494934 
M343.435333,124.820763 
	C325.048401,124.820763 306.661469,124.820763 288.378967,124.820763 
	C288.378967,145.473846 288.378967,165.494644 288.378967,185.450943 
	C308.774292,185.450943 328.809692,185.450943 348.715302,185.450943 
	C348.715302,165.060638 348.715302,145.009796 348.715302,124.820770 
	C347.066162,124.820770 345.743896,124.820770 343.435333,124.820763 
M198.500076,124.820763 
	C187.417404,124.820763 176.334747,124.820763 165.236572,124.820763 
	C165.236572,145.381607 165.236572,165.411774 165.236572,185.486206 
	C185.575516,185.486206 205.611710,185.486206 225.687744,185.486206 
	C225.687744,165.140121 225.687744,145.098160 225.687744,124.820763 
	C216.765594,124.820763 208.132843,124.820763 198.500076,124.820763 
M255.003952,345.456879 
	C235.650436,330.706177 209.900589,334.568787 198.573792,346.797180 
	C202.858719,355.355774 206.928253,363.484161 210.940430,371.498016 
	C211.627213,370.726837 212.510254,369.499146 213.619476,368.530457 
	C218.607285,364.174591 224.023987,360.301239 231.007233,362.852264 
	C234.745743,364.217987 237.926605,367.054474 241.481400,369.004303 
	C243.064072,369.872437 245.328949,371.126801 246.630676,370.597809 
	C252.569839,368.184174 258.313934,365.273071 264.050934,362.387299 
	C266.673126,361.068298 267.110992,358.791931 265.253052,356.589203 
	C262.154755,352.915894 258.807404,349.452637 255.003952,345.456879 
M165.776154,458.076630 
	C163.992813,463.854797 162.209473,469.632965 159.994110,476.810883 
	C158.399384,471.535645 157.309647,467.632477 156.038177,463.789429 
	C153.667969,456.625458 151.427170,449.400604 148.582413,442.425415 
	C147.932312,440.831390 144.754807,438.973236 143.264175,439.343658 
	C141.388123,439.809937 139.415390,442.195465 138.639313,444.200043 
	C137.650665,446.753754 137.831024,449.756531 137.484482,452.562927 
	C136.065445,464.054657 134.637665,475.545288 133.182343,487.284546 
	C135.582123,487.284546 137.503143,487.284546 139.728897,487.284546 
	C141.169739,475.085724 142.583405,463.117065 144.123337,450.079285 
	C147.756607,460.568573 150.922775,470.045959 154.355164,479.425903 
	C155.472809,482.480133 155.110107,487.196411 159.778076,487.401550 
	C164.956161,487.629120 164.621689,482.620422 165.677155,479.440491 
	C168.728134,470.248566 171.413239,460.935211 174.241974,451.669525 
	C174.463989,451.718445 174.685989,451.767365 174.908005,451.816284 
	C176.413147,463.598999 177.918304,475.381714 179.440002,487.294006 
	C181.730789,487.294006 183.655365,487.294006 185.851349,487.294006 
	C184.067825,472.678070 182.469727,458.331726 180.389069,444.055725 
	C180.118149,442.196869 177.493195,439.562592 175.721313,439.359711 
	C173.995743,439.162140 171.007248,441.220123 170.256531,442.998413 
	C168.333511,447.553436 167.346176,452.503479 165.776154,458.076630 
M204.699738,482.494049 
	C198.769958,481.119568 195.795242,478.307007 195.238480,473.114960 
	C194.742844,468.492645 196.024231,464.377472 200.305084,462.012299 
	C204.400848,459.749420 208.522736,459.784058 212.613525,463.553223 
	C207.309433,466.545410 202.284225,469.380249 196.984009,472.370270 
	C197.921463,474.018280 198.705048,475.395844 199.602402,476.973389 
	C206.907425,472.887360 213.953857,468.945984 221.002686,465.003265 
	C215.632233,455.774384 207.219727,452.595825 198.797897,456.221985 
	C190.014297,460.003998 186.000656,468.227020 188.748596,476.810883 
	C191.185272,484.422455 200.491608,489.381226 209.350418,487.788269 
	C216.651779,486.475403 221.997589,480.146271 221.500092,473.102905 
	C219.772064,473.009399 218.011902,472.914124 216.254868,472.819031 
	C214.814301,478.816833 211.818741,482.555664 204.699738,482.494049 
M317.518219,461.407074 
	C328.290863,458.916870 333.053741,462.593170 333.047150,473.390381 
	C333.044342,477.985535 333.046692,482.580688 333.046692,487.168457 
	C335.382141,487.168457 337.091675,487.168457 338.958771,487.168457 
	C338.958771,481.778839 338.970245,476.794739 338.956573,471.810669 
	C338.918365,457.894470 326.489502,450.339722 313.938202,456.597168 
	C308.343109,459.386597 304.636932,465.856384 305.315582,472.264740 
	C306.044525,479.148682 308.937988,484.755188 315.889374,487.251068 
	C324.819092,490.457245 330.912140,487.053894 330.583313,479.203827 
	C330.264252,479.239929 329.870605,479.167511 329.637024,479.328033 
	C323.177002,483.767456 317.250671,483.396729 313.452271,478.290192 
	C309.519806,473.003571 310.856110,466.435181 317.518219,461.407074 
M373.068939,471.638855 
	C373.020538,469.979187 373.112122,468.301392 372.899445,466.663025 
	C371.989532,459.653900 366.818054,455.258057 359.115204,454.836395 
	C352.128967,454.453918 345.868225,458.701569 345.146667,465.616547 
	C344.400360,472.768524 344.980652,480.058929 344.980652,487.622009 
	C347.013092,487.502289 348.738007,487.400696 350.622345,487.289703 
	C350.622345,481.109467 350.564850,475.473755 350.638519,469.839783 
	C350.712128,464.209106 353.702545,460.653229 358.246094,460.594269 
	C363.383789,460.527618 366.971405,464.204712 367.043488,469.783539 
	C367.117981,475.550079 367.060059,481.318359 367.060059,487.272339 
	C369.249664,487.272339 370.980499,487.272339 373.069031,487.272339 
	C373.069031,482.178223 373.069031,477.389221 373.068939,471.638855 
M390.569763,461.094635 
	C392.687012,461.094635 394.804260,461.094635 397.241333,461.094635 
	C397.141296,458.961609 397.067566,457.389618 396.966919,455.244476 
	C393.048187,455.244476 389.496613,455.244476 385.604065,455.244476 
	C385.604065,452.066772 385.604065,449.477997 385.604065,446.862030 
	C383.494293,446.862030 381.769348,446.862030 379.843445,446.862030 
	C379.843445,457.512207 379.699280,467.823364 379.898865,478.127930 
	C380.014099,484.076904 383.414398,487.237671 389.343628,487.523804 
	C391.804352,487.642548 394.275635,487.543488 396.966583,487.543488 
	C396.966583,485.527679 396.966583,483.954010 396.966583,481.944641 
	C395.128448,481.944641 393.492859,481.828247 391.879211,481.966919 
	C387.416992,482.350464 385.400208,480.585175 385.750793,475.921814 
	C386.036926,472.115753 386.025604,468.255219 385.744202,464.448547 
	C385.506409,461.232391 387.112549,460.809601 390.569763,461.094635 
M257.108276,456.333160 
	C247.999146,460.782562 244.399994,467.945831 246.990509,476.470276 
	C249.425797,484.483978 257.263824,488.558502 267.708801,487.074463 
	C267.708801,485.546692 267.708801,483.982697 267.708801,482.450043 
	C256.280029,480.760925 252.690933,478.421509 252.626358,472.119751 
	C252.603928,469.930603 253.062912,466.685364 254.500534,465.734528 
	C258.416473,463.144501 262.972229,461.521759 267.935638,459.207489 
	C267.906799,458.826050 267.789551,457.274567 267.636780,455.253479 
	C264.095856,455.565125 260.984100,455.838989 257.108276,456.333160 
M226.872604,470.503296 
	C226.872604,476.078522 226.872604,481.653748 226.872604,487.631714 
	C229.236496,487.498505 230.941803,487.402405 232.772644,487.299255 
	C232.772644,482.426025 232.757156,478.116699 232.775772,473.807526 
	C232.816864,464.291443 234.197632,462.496216 243.318878,460.029327 
	C243.318878,458.349823 243.318878,456.670288 243.318878,454.087738 
	C239.394470,455.369446 236.080292,456.451813 234.351807,457.016327 
	C231.212845,456.191681 229.290909,455.686768 226.872589,455.051422 
	C226.872589,460.582611 226.872589,465.044739 226.872604,470.503296 
M348.260895,239.185287 
	C345.828705,239.185287 343.396484,239.185287 340.947876,239.185287 
	C340.947876,245.146179 340.947876,250.565948 340.947876,256.080780 
	C343.740753,256.080780 346.268250,256.080780 348.913300,256.080780 
	C348.913300,250.462143 348.913300,245.162628 348.260895,239.185287 
M316.880157,229.399750 
	C310.001251,230.779053 315.872528,235.881119 313.410522,238.826218 
	C317.180420,238.826218 320.211243,238.826218 323.314026,238.826218 
	C323.314026,235.642746 323.314026,232.765045 323.314026,229.399323 
	C321.265442,229.399323 319.498352,229.399323 316.880157,229.399750 
M348.981506,299.471649 
	C348.981506,297.026306 348.981506,294.580963 348.981506,292.172791 
	C345.970825,292.172791 343.419342,292.172791 341.071228,292.172791 
	C341.071228,295.091858 341.071228,297.664673 341.071228,300.261169 
	C343.761749,300.261169 346.084198,300.261169 348.981506,299.471649 
z"/>
<path fill="#DB0202" opacity="1.000000" stroke="none" 
	d="
M27.019913,60.040340 
	C42.801704,52.066860 58.584221,44.094818 74.364983,36.119301 
	C82.493874,32.010998 90.647232,27.949896 98.739159,23.769962 
	C107.034912,19.484743 115.146179,14.819817 123.582680,10.839253 
	C127.750015,8.872994 129.857880,6.472196 128.985474,1.429645 
	C213.687561,1.000000 298.375122,1.000000 383.531342,1.000000 
	C382.770233,6.567459 385.611938,8.984166 390.453949,11.276291 
	C408.219391,19.686148 425.678802,28.739363 443.336914,37.379845 
	C458.675232,44.885197 474.126434,52.159897 489.722290,60.031830 
	C489.916870,60.527134 489.904541,60.986305 489.600006,60.989071 
	C488.889435,60.989822 488.483429,60.987808 487.766022,60.698177 
	C486.809296,60.280487 486.164062,60.037601 485.518524,60.036766 
	C467.222900,60.013023 448.927216,59.994801 430.631744,60.052254 
	C429.395020,60.056133 428.160187,60.660297 426.681519,60.998985 
	C426.438568,61.012695 425.953979,61.057510 425.752075,61.023491 
	C425.550201,60.989468 425.144470,60.934124 425.032043,60.607864 
	C416.309143,54.663731 407.622314,49.158749 399.105072,43.402901 
	C384.452087,33.500637 369.745056,23.664000 355.393372,13.337493 
	C349.820374,9.327537 344.265564,7.526774 337.436340,7.916118 
	C328.930206,8.401061 320.375427,8.032503 310.854767,8.032503 
	C316.731903,14.488914 321.839569,20.019676 326.858154,25.630104 
	C337.062836,37.038181 347.219482,48.489273 356.901306,59.948147 
	C334.966949,59.974895 313.527130,59.976131 291.908997,59.654903 
	C290.787109,56.506359 289.869202,53.671402 288.895660,50.855694 
	C284.328583,37.646164 279.805786,24.420506 275.076965,11.269009 
	C274.604187,9.954176 272.867950,8.204112 271.681213,8.175282 
	C261.551697,7.929214 251.412979,7.983941 241.279068,8.111308 
	C240.248764,8.124257 238.615585,8.984949 238.311996,9.829590 
	C236.719376,14.260464 235.304337,18.771317 234.124008,23.331116 
	C230.967590,35.524841 227.962326,47.757690 224.435349,59.992188 
	C202.464142,59.978138 180.954544,59.946888 159.601913,59.595085 
	C173.576645,42.405010 187.394424,25.535484 201.731064,8.032503 
	C190.873169,8.032503 180.767090,7.812505 170.681046,8.165048 
	C167.610031,8.272390 164.134048,9.294218 161.630417,11.031310 
	C148.863983,19.889046 136.384537,29.159126 123.747597,38.205204 
	C113.100967,45.826534 102.376183,53.338688 91.491615,60.907845 
	C91.297241,60.916515 90.922424,61.021111 90.710854,61.008934 
	C90.499283,60.996761 90.075584,60.985271 89.764275,60.697861 
	C88.807587,60.280411 88.162354,60.037601 87.516808,60.036755 
	C69.220879,60.012772 50.924854,59.994267 32.629086,60.051548 
	C31.392666,60.055416 30.158127,60.660393 28.615715,60.988834 
	C27.899374,60.990662 27.490030,60.989456 27.075329,60.750641 
	C27.069969,60.513035 27.019913,60.040340 27.019913,60.040340 
z"/>
<path fill="#FFFFFF" opacity="1.000000" stroke="none" 
	d="
M513.000000,85.531342 
	C512.312439,84.881729 511.284332,83.846115 510.989807,82.632454 
	C507.888519,69.853363 504.412659,57.093204 496.152588,46.623337 
	C490.260193,39.154549 483.109711,32.680244 476.542419,25.741571 
	C463.636841,12.106214 446.938416,6.326843 429.149292,2.767197 
	C428.765900,2.690484 428.486755,2.093096 428.079468,1.369294 
	C456.260223,1.000000 484.520477,1.000000 513.000000,1.000000 
	C513.000000,29.020514 513.000000,57.041599 513.000000,85.531342 
z"/>
<path fill="#FFFFFF" opacity="1.000000" stroke="none" 
	d="
M85.531342,0.999999 
	C84.881729,1.687546 83.845299,2.725288 82.632584,3.008736 
	C69.809898,6.005781 57.138565,9.724756 46.632023,17.861902 
	C39.117207,23.682003 32.703785,30.916210 25.736263,37.452663 
	C12.013972,50.325985 6.352975,67.074409 2.767320,84.850639 
	C2.689930,85.234314 2.093095,85.513206 1.369289,85.920486 
	C1.000000,57.739769 1.000000,29.479536 1.000000,1.000000 
	C29.020514,1.000000 57.041599,1.000000 85.531342,0.999999 
z"/>
<path fill="#FFFFFF" opacity="1.000000" stroke="none" 
	d="
M1.000000,428.468658 
	C1.687548,429.118286 2.715665,430.153900 3.010200,431.367554 
	C6.111475,444.146729 9.587406,456.906921 17.847498,467.376831 
	C23.739908,474.845642 30.915976,481.296112 37.452477,488.263611 
	C50.325844,501.985931 67.074326,507.647003 84.850632,511.232697 
	C85.234306,511.310089 85.513206,511.906921 85.920494,512.630737 
	C57.739765,513.000000 29.479528,513.000000 1.000000,513.000000 
	C1.000000,484.979492 1.000000,456.958405 1.000000,428.468658 
z"/>
<path fill="#FFFFFF" opacity="1.000000" stroke="none" 
	d="
M428.468658,513.000000 
	C429.118256,512.312439 430.153870,511.284332 431.367554,510.989777 
	C444.146667,507.888336 456.906921,504.412506 467.376831,496.152435 
	C474.845642,490.259979 481.296143,483.083984 488.263641,476.547485 
	C501.985962,463.674103 507.646973,446.925629 511.232666,429.149323 
	C511.310028,428.765686 511.906952,428.486786 512.630737,428.079498 
	C513.000000,456.260223 513.000000,484.520477 513.000000,513.000000 
	C484.979492,513.000000 456.958405,513.000000 428.468658,513.000000 
z"/>
<path fill="#E92738" opacity="1.000000" stroke="none" 
	d="
M118.898270,365.900665 
	C123.198181,353.024536 131.846924,344.702606 143.736526,339.666321 
	C164.896255,330.703339 185.773148,338.819397 198.816757,354.508514 
	C205.082565,362.045197 207.219421,371.403778 207.742188,381.032532 
	C208.273071,390.811096 212.649628,397.455475 220.841309,400.252136 
	C228.206421,402.766602 237.371811,400.123688 242.827133,393.595642 
	C244.694916,391.360596 246.370819,390.541260 249.236099,391.633209 
	C254.207886,393.527954 259.284180,395.168915 264.375793,396.722321 
	C268.448853,397.964966 268.997131,399.998627 267.200500,403.813995 
	C255.461166,428.743500 221.353531,436.276520 199.083008,418.347382 
	C194.955887,415.024811 192.854706,415.762115 189.231827,418.611115 
	C169.115540,434.430267 138.926300,430.389832 124.584198,409.567627 
	C115.507759,396.390289 113.206314,381.713684 118.898270,365.900665 
M178.522507,374.302399 
	C175.850998,368.368256 171.069534,364.441467 165.214294,362.431488 
	C155.434860,359.074402 141.619171,369.313538 140.872238,379.465393 
	C140.309540,387.112976 142.603653,393.506836 149.008423,397.634399 
	C157.066833,402.827606 166.258774,402.295166 172.824341,397.057953 
	C179.469681,391.757111 181.602295,383.940094 178.522507,374.302399 
z"/>
<path fill="#E92739" opacity="1.000000" stroke="none" 
	d="
M308.644348,394.192413 
	C306.506256,386.042542 306.627167,378.308136 308.759247,370.598633 
	C310.222229,365.308594 312.873566,363.297607 318.329590,363.279297 
	C330.210602,363.239410 330.210602,363.239410 330.208038,351.369110 
	C330.206207,342.679871 330.852142,341.789612 339.209900,338.962555 
	C355.941223,333.303009 375.652405,338.131165 386.993073,351.705200 
	C399.287567,366.420990 402.021973,382.873505 394.700348,401.131195 
	C383.329468,429.486359 346.168579,436.216614 323.854431,417.913422 
	C316.036591,411.500854 311.774994,403.660645 308.644348,394.192413 
M345.477753,364.790375 
	C344.452606,365.343048 343.375214,365.817352 342.410492,366.460632 
	C333.674072,372.286102 331.076660,383.598785 336.418457,392.432861 
	C342.145142,401.903381 353.409637,404.302063 364.485809,398.409668 
	C372.286865,394.259552 375.862030,382.196899 370.757507,373.887207 
	C368.424347,370.089020 363.865082,367.601959 360.163269,364.715424 
	C355.634766,361.184296 350.842194,361.484772 345.477753,364.790375 
z"/>
<path fill="#040404" opacity="1.000000" stroke="none" 
	d="
M341.067871,273.674652 
	C338.244751,273.674652 335.421661,273.674652 332.173035,273.674652 
	C332.173035,276.792175 332.173035,279.714874 332.173035,282.964264 
	C329.207001,283.115479 326.638977,283.246429 323.803558,283.390961 
	C323.803558,286.188812 323.803558,288.758453 323.803558,291.628387 
	C326.451599,291.628387 328.907867,291.628387 331.703064,291.628387 
	C331.703064,297.456146 331.703064,302.997742 331.703064,309.007141 
	C325.929260,309.007141 320.154572,309.007141 314.379913,309.007141 
	C308.593445,309.007141 302.806946,309.007141 296.719116,309.007141 
	C296.719116,306.138000 296.719116,303.669373 296.719116,300.804871 
	C291.042084,300.804871 285.656708,300.804871 279.735199,300.804871 
	C279.621490,303.290314 279.503540,305.868774 279.373047,308.721130 
	C276.293793,308.721130 273.391846,308.721130 270.119049,308.721130 
	C270.001556,306.206848 269.880859,303.624420 269.745605,300.729858 
	C267.057404,300.729858 264.500153,300.729858 261.466736,300.729858 
	C261.466736,303.365753 261.466736,305.932983 261.466736,308.753571 
	C258.420502,308.753571 255.840820,308.753571 252.818161,308.753571 
	C252.818161,303.408905 252.818161,298.141998 253.465088,292.374725 
	C259.230072,291.874390 264.348114,291.874390 269.572693,291.874390 
	C269.572693,288.719574 269.572693,286.040039 269.572693,282.798431 
	C263.903503,282.798431 258.613525,282.798431 253.080612,282.426361 
	C252.837677,279.458893 252.837677,276.863464 252.837677,273.994324 
	C249.702194,273.994324 247.040695,273.994324 244.356674,273.994324 
	C244.356674,277.186279 244.356674,280.053497 244.356674,283.285614 
	C247.600418,283.076813 250.524673,282.888550 253.204865,283.117371 
	C253.123245,286.417786 253.285675,289.301117 253.448105,292.184448 
	C250.494705,292.184448 247.541290,292.184448 244.205032,292.184448 
	C244.205032,297.632446 244.205032,303.049042 244.205032,308.731506 
	C240.917908,308.731506 238.000885,308.731506 234.777740,308.731506 
	C234.777740,294.389679 234.777740,280.003845 234.777740,265.196411 
	C237.661438,265.196411 240.560486,265.196411 244.027359,265.196411 
	C244.027359,262.355499 244.027359,259.923523 244.021439,257.031799 
	C244.015518,256.572083 243.938065,256.572601 244.385559,256.452576 
	C247.404602,256.332520 249.976181,256.332520 252.880081,256.332520 
	C252.880081,253.109482 252.880081,250.690506 252.880081,248.070999 
	C258.852722,248.070999 264.460205,248.070999 270.037384,248.040009 
	C270.007050,248.009033 269.942139,247.951447 269.942139,247.951447 
	C269.942139,250.596207 269.942139,253.240967 269.942139,256.206940 
	C267.151489,256.332489 264.558105,256.449158 261.608093,256.581879 
	C261.608093,259.310120 261.608093,261.848633 261.608093,264.752258 
	C264.132080,264.752258 266.720947,264.752258 269.721375,264.752258 
	C269.890106,267.797333 270.041351,270.526520 270.201477,273.416229 
	C273.166626,273.416229 275.921722,273.416229 279.192383,273.416229 
	C279.192383,270.725006 279.192383,268.158478 279.192383,265.295288 
	C282.262115,265.295288 284.837830,265.295288 287.844086,265.295288 
	C287.990051,267.819733 288.147461,270.542023 288.311707,273.383026 
	C291.118866,273.534454 293.733612,273.675476 296.605194,273.830383 
	C296.605194,276.849335 296.605194,279.621918 296.605194,283.103333 
	C299.277100,283.103333 301.687958,283.103333 304.636292,283.523560 
	C305.173767,286.519989 305.173767,289.096252 305.173767,291.524292 
	C308.554108,291.524292 311.121735,291.524292 313.605499,291.524292 
	C313.605499,288.584259 313.605499,286.011108 313.605499,283.214661 
	C310.486969,283.214661 307.691315,283.214661 304.895630,283.214661 
	C305.027496,277.216644 305.159363,271.218658 305.646454,264.922852 
	C306.001678,264.625061 305.941986,264.693634 305.941986,264.693634 
	C308.396179,264.814880 310.850342,264.936127 313.675201,265.075714 
	C313.675201,259.359222 313.675201,253.954376 313.675201,248.213699 
	C319.875519,248.213699 325.721008,248.213699 331.934387,248.213699 
	C331.934387,253.614929 331.934387,259.017914 331.934387,264.752777 
	C334.972717,264.910919 337.685272,265.052094 340.857239,265.217194 
	C340.857239,267.913910 340.857239,270.364655 340.933472,273.274017 
	C341.009735,273.732635 341.067871,273.674652 341.067871,273.674652 
M284.520996,283.115723 
	C282.941071,283.200104 281.361145,283.284485 279.718506,283.372192 
	C279.718506,286.363892 279.718506,288.931702 279.718506,291.634399 
	C282.573761,291.634399 285.127228,291.634399 288.070679,291.634399 
	C288.070679,289.606049 288.392914,287.739532 287.958344,286.070068 
	C287.664642,284.941986 286.304962,284.091370 284.520996,283.115723 
z"/>
<path fill="#B8D0FE" opacity="1.000000" stroke="none" 
	d="
M90.922424,61.021111 
	C90.922424,61.021111 91.297241,60.916515 91.980865,60.929516 
	C114.613541,60.927837 136.562592,60.913158 158.560516,61.370491 
	C158.641251,70.206154 158.673111,78.569801 158.704956,86.933449 
	C155.625870,102.494049 135.842133,113.366150 122.566002,112.108330 
	C108.844246,110.808281 93.019005,100.425842 91.350723,85.877853 
	C91.013428,77.090179 90.967926,69.055641 90.922424,61.021111 
z"/>
<path fill="#B8D0FE" opacity="1.000000" stroke="none" 
	d="
M425.144470,60.934124 
	C425.144470,60.934124 425.550201,60.989468 425.678040,61.481590 
	C425.773285,69.977707 425.740723,77.981697 425.708130,85.985687 
	C421.762421,106.898018 398.420319,117.399460 379.716400,109.693840 
	C369.838531,105.624367 360.541992,98.957634 358.403748,85.829117 
	C358.192749,77.024239 358.255066,68.984558 358.765381,60.950302 
	C381.190430,60.948521 403.167450,60.941322 425.144470,60.934124 
z"/>
<path fill="#B8D1FF" opacity="1.000000" stroke="none" 
	d="
M292.045166,86.955383 
	C289.683777,96.102524 284.490021,102.335136 275.861694,107.044731 
	C267.718719,111.489403 259.769806,113.405540 251.220734,111.092743 
	C239.109451,107.816246 229.056870,101.540222 225.018799,87.779373 
	C224.787277,86.387047 224.722122,85.692871 224.717575,84.533997 
	C224.876617,76.374588 224.975037,68.679871 225.537384,60.982533 
	C247.961319,60.975681 269.921326,60.971458 291.959442,61.432236 
	C292.040070,70.249954 292.042633,78.602669 292.045166,86.955383 
z"/>
<path fill="#AF0101" opacity="1.000000" stroke="none" 
	d="
M425.816589,86.364304 
	C425.740723,77.981697 425.773285,69.977707 425.879944,61.515610 
	C425.953979,61.057510 426.438568,61.012695 427.158844,61.001152 
	C447.945221,60.988342 468.011292,60.987072 488.077393,60.985798 
	C488.483429,60.987808 488.889435,60.989822 489.955566,61.011311 
	C491.320404,61.035366 492.025208,61.039948 492.729980,61.044525 
	C492.806732,69.031273 493.310242,77.047256 492.765930,84.991455 
	C492.522736,88.540680 490.716339,92.305092 488.691284,95.355759 
	C478.312378,110.991035 462.165131,116.433746 444.474060,109.023750 
	C435.170929,105.127083 427.509094,97.988518 425.816589,86.364304 
z"/>
<path fill="#AF0101" opacity="1.000000" stroke="none" 
	d="
M292.257812,87.248260 
	C292.042633,78.602669 292.040070,70.249954 292.022675,61.498791 
	C292.007812,61.100346 292.185028,61.052433 292.641479,61.042488 
	C314.715179,61.024590 336.332428,61.016632 358.047424,61.026207 
	C358.145172,61.043747 358.317383,60.944881 358.317383,60.944881 
	C358.255066,68.984558 358.192749,77.024239 358.222290,85.521210 
	C357.172516,94.437851 352.355042,100.295425 345.713959,105.381767 
	C336.989441,112.063759 327.289734,113.616531 317.219330,111.031822 
	C304.925262,107.876366 295.645935,100.711418 292.257812,87.248260 
z"/>
<path fill="#AF0101" opacity="1.000000" stroke="none" 
	d="
M90.710854,61.008934 
	C90.967926,69.055641 91.013428,77.090179 91.129471,85.595596 
	C89.841415,95.084991 84.543106,101.119957 77.222359,106.243507 
	C67.163773,113.283188 56.244766,113.966637 45.686420,109.778275 
	C34.899502,105.499245 24.425831,97.163010 24.965193,81.401611 
	C25.186821,74.925087 25.019047,68.435242 25.449940,61.507118 
	C26.274548,61.037933 26.677616,61.013092 27.080687,60.988251 
	C27.490030,60.989456 27.899374,60.990662 29.093237,60.990868 
	C49.943699,60.988335 70.009644,60.986805 90.075584,60.985271 
	C90.075584,60.985271 90.499283,60.996761 90.710854,61.008934 
z"/>
<path fill="#AF0101" opacity="1.000000" stroke="none" 
	d="
M225.073471,60.985161 
	C224.975037,68.679871 224.876617,76.374588 224.500305,84.796509 
	C224.198547,86.416519 224.174667,87.309311 224.150787,88.202110 
	C222.904709,91.233467 222.233734,94.701859 220.317245,97.223724 
	C209.580276,111.352295 194.380936,116.163078 177.678467,109.202080 
	C168.554581,105.399567 160.919678,98.567223 158.827118,87.309769 
	C158.673111,78.569801 158.641251,70.206154 158.663116,61.410782 
	C158.716858,60.979065 158.935242,60.949017 159.408081,60.958923 
	C181.498184,61.011478 203.115448,61.054131 224.838715,61.132481 
	C224.944748,61.168179 225.073471,60.985161 225.073471,60.985161 
z"/>
<path fill="#E92739" opacity="1.000000" stroke="none" 
	d="
M284.553711,426.460815 
	C279.890350,426.849640 279.208130,424.414581 279.226959,420.866730 
	C279.325012,402.391205 279.274933,383.914886 279.276367,365.438843 
	C279.276520,363.817322 279.276398,362.195801 279.276398,359.784241 
	C272.191406,361.990662 269.593109,357.369202 266.480560,352.890808 
	C264.143707,349.528503 260.727386,346.934937 258.006927,343.811646 
	C256.927246,342.572083 256.428833,340.826202 255.665741,339.310852 
	C257.122375,338.764221 258.576630,337.749115 260.036041,337.741638 
	C280.342499,337.637573 300.649872,337.716278 320.956512,337.628906 
	C324.467224,337.613831 326.241882,338.620514 326.019562,342.478577 
	C325.770935,346.792389 325.931488,351.130371 325.933411,355.457855 
	C325.934875,358.756775 324.493561,360.203613 321.021515,360.086792 
	C314.900970,359.880829 308.768494,360.029144 302.304260,360.029144 
	C302.195221,361.830292 302.033722,363.267822 302.032410,364.705475 
	C302.015594,383.181519 302.023865,401.657593 302.020721,420.133636 
	C302.019653,426.343445 301.901978,426.453186 295.484985,426.461517 
	C291.989502,426.466064 288.494019,426.461761 284.553711,426.460815 
z"/>
<path fill="#050505" opacity="1.000000" stroke="none" 
	d="
M243.938065,256.572601 
	C243.938065,256.572601 244.015518,256.572083 244.046341,256.547852 
	C241.102554,256.523651 238.127930,256.523651 234.655457,256.523651 
	C234.655457,250.705307 234.655457,245.296906 234.655457,239.423508 
	C228.762421,239.423508 223.351776,239.423508 217.579147,239.423508 
	C217.579147,236.065079 217.579147,233.166428 217.579147,229.906586 
	C226.071976,229.906586 234.682083,229.906586 244.006577,229.906586 
	C244.006577,227.009399 244.006577,224.438644 243.992493,221.427124 
	C243.978409,220.986343 243.936966,221.062057 244.395355,221.043274 
	C247.434448,221.024506 250.015152,221.024506 252.628601,221.024506 
	C252.801224,217.709427 252.938187,215.079041 253.025894,212.454712 
	C252.976639,212.460739 252.945160,212.554886 252.945160,212.554886 
	C255.487656,212.459213 258.030151,212.363556 260.889954,212.480408 
	C261.207214,215.416153 261.207214,218.139389 261.207214,220.804642 
	C264.448975,220.804642 267.028442,220.804642 269.570068,220.804642 
	C270.449188,212.771576 270.448578,212.783371 263.034363,212.394043 
	C262.432037,212.362411 261.846161,212.018326 261.252625,211.819443 
	C261.252625,206.515915 261.252625,201.212387 261.252625,195.531891 
	C264.095154,195.531891 266.787201,195.531891 269.891479,195.531891 
	C269.891479,198.169662 269.891479,200.757507 269.891479,203.607880 
	C273.183350,203.607880 276.079224,203.607880 279.147491,203.607880 
	C279.308563,200.817490 279.458527,198.219635 279.621429,195.398010 
	C282.459106,195.398010 285.025452,195.398010 288.008057,195.398010 
	C288.008057,198.139954 288.008057,200.727585 288.008057,203.588882 
	C290.991608,203.588882 293.569916,203.588882 296.592468,203.588882 
	C296.592468,200.916901 296.592468,198.318314 296.592468,195.441040 
	C299.569946,195.441040 302.114777,195.441040 304.953217,195.441040 
	C304.953217,212.767807 304.953217,230.001404 304.953217,247.587326 
	C302.526764,247.587326 299.957001,247.587326 296.933960,247.587326 
	C296.933960,242.015884 296.933960,236.281830 296.933960,230.168884 
	C290.985809,230.168884 285.468933,230.168884 279.508972,230.168884 
	C279.508972,235.877792 279.508972,241.488480 279.507507,247.543427 
	C279.506042,247.987686 279.584106,247.931870 279.584106,247.931854 
	C276.686859,247.934464 273.789612,247.937073 270.417236,247.945557 
	C269.942139,247.951447 270.007050,248.009033 269.976410,247.570679 
	C269.945770,241.399139 269.945770,235.665939 269.945770,230.075134 
	C266.731354,230.075134 264.154572,230.075134 261.053070,230.075134 
	C261.053070,233.244919 261.053070,236.110748 261.053070,239.361694 
	C255.132202,239.361694 249.748444,239.361694 243.938065,239.361694 
	C243.938065,245.373734 243.938065,250.973175 243.938065,256.572601 
M287.997437,220.328720 
	C287.997437,217.779739 287.997437,215.230759 287.997437,212.774139 
	C284.843964,212.774139 282.313416,212.774139 279.709198,212.774139 
	C279.709198,215.672836 279.709198,218.216614 279.709198,220.971985 
	C282.434387,220.971985 284.877716,220.971985 287.997437,220.328720 
z"/>
<path fill="#070707" opacity="1.000000" stroke="none" 
	d="
M244.008942,220.955841 
	C232.701447,220.956528 221.363403,220.987686 209.436737,220.491760 
	C208.848129,217.667374 208.848129,215.370087 208.848129,212.913681 
	C205.742798,212.514206 203.020020,212.163940 200.183609,211.398804 
	C200.069962,208.740433 200.069962,206.496933 200.069962,204.206284 
	C196.678665,204.206284 193.799469,204.206284 190.962097,204.206284 
	C190.962097,207.010742 190.962097,209.543671 190.962097,212.624496 
	C194.363251,212.295975 197.400665,212.002579 200.330933,212.172867 
	C200.223801,215.340576 200.223801,218.044617 200.223801,221.183746 
	C203.525330,220.966522 206.394943,220.777710 209.264542,220.588898 
	C209.264542,226.535049 209.264542,232.481186 209.264542,238.803802 
	C205.929413,238.803802 203.235092,238.803802 200.211395,238.803802 
	C200.211395,236.044434 200.211395,233.274139 200.211395,230.148895 
	C197.034012,230.148895 194.159744,230.148895 190.875488,230.148895 
	C190.724854,232.942245 190.569138,235.829712 190.401352,238.941040 
	C184.732513,238.941040 179.299957,238.941040 173.344757,238.941040 
	C173.344757,236.047913 173.344757,233.152771 173.344757,229.882416 
	C170.419907,229.882416 168.002487,229.882416 165.260651,229.882416 
	C165.260651,223.958511 165.260651,218.415207 165.260651,212.411346 
	C170.722061,212.411346 176.128372,212.411346 181.738159,212.411346 
	C181.738159,209.518097 181.738159,207.074783 181.738159,204.187469 
	C176.425140,204.187469 171.029282,204.187469 165.284927,204.187469 
	C165.284927,201.058655 165.284927,198.357468 165.284927,195.397644 
	C179.551178,195.397644 193.792526,195.397644 208.656891,195.397644 
	C208.656891,198.031265 208.656891,200.727570 208.656891,203.884781 
	C211.728149,203.884781 214.184311,203.884781 217.081940,203.946014 
	C217.523407,204.007263 217.443680,203.942444 217.387177,204.417328 
	C217.330688,207.195496 217.330688,209.498749 217.330688,212.565674 
	C226.488785,212.565674 235.272385,212.565674 244.029846,212.531555 
	C244.003708,212.497421 243.936859,212.443329 243.979446,212.925735 
	C243.993668,215.959442 243.965317,218.510757 243.936966,221.062057 
	C243.936966,221.062057 243.978409,220.986343 244.008942,220.955841 
z"/>
<path fill="#050505" opacity="1.000000" stroke="none" 
	d="
M225.977661,294.993225 
	C225.977661,299.796997 225.977661,304.102478 225.977661,308.706116 
	C205.703186,308.706116 185.653519,308.706116 165.275970,308.706116 
	C165.275970,288.662140 165.275970,268.486115 165.275970,248.091217 
	C185.394440,248.091217 205.441284,248.091217 225.977661,248.091217 
	C225.977661,263.645416 225.977661,279.070190 225.977661,294.993225 
M216.897415,256.954559 
	C209.779968,256.763336 202.663513,256.495880 195.544785,256.402161 
	C188.266281,256.306305 180.985535,256.380920 173.520813,256.380920 
	C173.520813,271.254028 173.520813,285.507141 173.520813,300.025421 
	C188.129379,300.025421 202.507736,300.025421 217.196793,300.025421 
	C217.196793,285.780792 217.196793,271.815582 216.897415,256.954559 
z"/>
<path fill="#050505" opacity="1.000000" stroke="none" 
	d="
M343.928467,124.820770 
	C345.743896,124.820770 347.066162,124.820770 348.715302,124.820770 
	C348.715302,145.009796 348.715302,165.060638 348.715302,185.450943 
	C328.809692,185.450943 308.774292,185.450943 288.378967,185.450943 
	C288.378967,165.494644 288.378967,145.473846 288.378967,124.820763 
	C306.661469,124.820763 325.048401,124.820763 343.928467,124.820770 
M296.772308,173.411560 
	C296.340027,176.111023 297.223663,177.188080 300.204315,177.104645 
	C307.856110,176.890427 315.517944,177.033218 323.175751,177.033249 
	C328.924652,177.033279 334.673584,177.033264 340.312286,177.033264 
	C340.312286,161.987534 340.312286,147.619720 340.312286,133.322968 
	C325.658691,133.322968 311.398346,133.322968 296.772217,133.322968 
	C296.772217,146.526001 296.772217,159.477692 296.772308,173.411560 
z"/>
<path fill="#050505" opacity="1.000000" stroke="none" 
	d="
M199.000092,124.820763 
	C208.132843,124.820763 216.765594,124.820763 225.687744,124.820763 
	C225.687744,145.098160 225.687744,165.140121 225.687744,185.486206 
	C205.611710,185.486206 185.575516,185.486206 165.236572,185.486206 
	C165.236572,165.411774 165.236572,145.381607 165.236572,124.820763 
	C176.334747,124.820763 187.417404,124.820763 199.000092,124.820763 
M173.295822,172.289444 
	C173.367050,173.744965 173.438263,175.200470 173.514374,176.756119 
	C188.197083,176.756119 202.588470,176.756119 216.893417,176.756119 
	C216.893417,162.097595 216.893417,147.718506 216.893417,133.289246 
	C202.307678,133.289246 188.057388,133.289246 173.295837,133.289246 
	C173.295837,146.111603 173.295837,158.719650 173.295822,172.289444 
z"/>
<path fill="#E92839" opacity="1.000000" stroke="none" 
	d="
M255.284454,345.678894 
	C258.807404,349.452637 262.154755,352.915894 265.253052,356.589203 
	C267.110992,358.791931 266.673126,361.068298 264.050934,362.387299 
	C258.313934,365.273071 252.569839,368.184174 246.630676,370.597809 
	C245.328949,371.126801 243.064072,369.872437 241.481400,369.004303 
	C237.926605,367.054474 234.745743,364.217987 231.007233,362.852264 
	C224.023987,360.301239 218.607285,364.174591 213.619476,368.530457 
	C212.510254,369.499146 211.627213,370.726837 210.940430,371.498016 
	C206.928253,363.484161 202.858719,355.355774 198.573792,346.797180 
	C209.900589,334.568787 235.650436,330.706177 255.284454,345.678894 
z"/>
<path fill="#7F0C13" opacity="1.000000" stroke="none" 
	d="
M165.880432,457.686096 
	C167.346176,452.503479 168.333511,447.553436 170.256531,442.998413 
	C171.007248,441.220123 173.995743,439.162140 175.721313,439.359711 
	C177.493195,439.562592 180.118149,442.196869 180.389069,444.055725 
	C182.469727,458.331726 184.067825,472.678070 185.851349,487.294006 
	C183.655365,487.294006 181.730789,487.294006 179.440002,487.294006 
	C177.918304,475.381714 176.413147,463.598999 174.908005,451.816284 
	C174.685989,451.767365 174.463989,451.718445 174.241974,451.669525 
	C171.413239,460.935211 168.728134,470.248566 165.677155,479.440491 
	C164.621689,482.620422 164.956161,487.629120 159.778076,487.401550 
	C155.110107,487.196411 155.472809,482.480133 154.355164,479.425903 
	C150.922775,470.045959 147.756607,460.568573 144.123337,450.079285 
	C142.583405,463.117065 141.169739,475.085724 139.728897,487.284546 
	C137.503143,487.284546 135.582123,487.284546 133.182343,487.284546 
	C134.637665,475.545288 136.065445,464.054657 137.484482,452.562927 
	C137.831024,449.756531 137.650665,446.753754 138.639313,444.200043 
	C139.415390,442.195465 141.388123,439.809937 143.264175,439.343658 
	C144.754807,438.973236 147.932312,440.831390 148.582413,442.425415 
	C151.427170,449.400604 153.667969,456.625458 156.038177,463.789429 
	C157.309647,467.632477 158.399384,471.535645 159.994110,476.810883 
	C162.209473,469.632965 163.992813,463.854797 165.880432,457.686096 
z"/>
<path fill="#080808" opacity="1.000000" stroke="none" 
	d="
M252.598511,151.007248 
	C252.598511,148.187561 252.598511,145.367874 252.598511,142.113464 
	C246.806747,142.113464 241.068176,142.113464 234.898560,142.113464 
	C234.898560,138.992294 234.898560,136.294495 234.898560,133.180496 
	C240.609787,133.180496 246.368500,133.180496 252.444260,133.180496 
	C252.642761,130.256119 252.816254,127.700256 252.998978,125.008362 
	C261.806793,125.008362 270.420258,125.008362 279.283478,125.008362 
	C279.283478,139.453308 279.283478,153.704453 279.283478,168.451599 
	C276.322479,168.451599 273.536774,168.451599 270.364563,168.255600 
	C269.978058,168.059601 270.053528,168.026321 269.996399,167.560028 
	C269.939270,161.882614 269.939270,156.671478 269.939270,150.919434 
	C263.591003,150.919434 257.997925,150.919434 252.451523,150.945282 
	C252.498169,150.971115 252.598511,151.007248 252.598511,151.007248 
M269.952576,134.720367 
	C267.172363,133.992706 264.392151,133.265045 261.592163,132.532196 
	C261.592163,136.453033 261.592163,139.025177 261.592163,141.458969 
	C264.596466,141.458969 267.172516,141.458969 269.963745,141.458969 
	C269.963745,139.279129 269.963745,137.457260 269.952576,134.720367 
z"/>
<path fill="#83131A" opacity="1.000000" stroke="none" 
	d="
M280.155853,457.162750 
	C291.963470,451.199921 300.692169,456.564514 300.770966,469.853455 
	C300.804443,475.494019 300.776550,481.134918 300.776550,487.327484 
	C298.850128,487.415283 297.123444,487.493988 294.799225,487.599945 
	C294.799225,481.496002 294.833649,475.731567 294.789948,469.967743 
	C294.742310,463.692169 292.474426,460.778259 287.613586,460.603821 
	C282.515472,460.420898 279.369843,463.935974 279.257324,470.188110 
	C279.156097,475.811462 279.235992,481.438080 279.235992,487.322815 
	C276.921936,487.322815 274.996063,487.322815 272.710815,487.322815 
	C272.710815,471.741486 272.710815,456.197601 272.710815,440.264343 
	C274.698639,440.264343 276.737640,440.264343 279.265167,440.264343 
	C279.265167,445.403992 279.265167,450.521240 279.212891,456.292877 
	C279.274384,457.229370 279.388153,457.511444 279.501923,457.793518 
	C279.719879,457.583252 279.937866,457.372986 280.155853,457.162750 
z"/>
<path fill="#800D14" opacity="1.000000" stroke="none" 
	d="
M205.127167,482.512817 
	C211.818741,482.555664 214.814301,478.816833 216.254868,472.819031 
	C218.011902,472.914124 219.772064,473.009399 221.500092,473.102905 
	C221.997589,480.146271 216.651779,486.475403 209.350418,487.788269 
	C200.491608,489.381226 191.185272,484.422455 188.748596,476.810883 
	C186.000656,468.227020 190.014297,460.003998 198.797897,456.221985 
	C207.219727,452.595825 215.632233,455.774384 221.002686,465.003265 
	C213.953857,468.945984 206.907425,472.887360 199.602402,476.973389 
	C198.705048,475.395844 197.921463,474.018280 196.984009,472.370270 
	C202.284225,469.380249 207.309433,466.545410 212.613525,463.553223 
	C208.522736,459.784058 204.400848,459.749420 200.305084,462.012299 
	C196.024231,464.377472 194.742844,468.492645 195.238480,473.114960 
	C195.795242,478.307007 198.769958,481.119568 205.127167,482.512817 
z"/>
<path fill="#811017" opacity="1.000000" stroke="none" 
	d="
M317.160828,461.612579 
	C310.856110,466.435181 309.519806,473.003571 313.452271,478.290192 
	C317.250671,483.396729 323.177002,483.767456 329.637024,479.328033 
	C329.870605,479.167511 330.264252,479.239929 330.583771,479.207886 
	C330.912140,487.053894 324.819092,490.457245 315.889374,487.251068 
	C308.937988,484.755188 306.044525,479.148682 305.315582,472.264740 
	C304.636932,465.856384 308.343109,459.386597 313.938202,456.597168 
	C326.489502,450.339722 338.918365,457.894470 338.956573,471.810669 
	C338.970245,476.794739 338.958771,481.778839 338.958771,487.168457 
	C337.091675,487.168457 335.382141,487.168457 333.046692,487.168457 
	C333.046692,482.580688 333.044342,477.985535 333.047150,473.390381 
	C333.053741,462.593170 328.290863,458.916870 317.160828,461.612579 
z"/>
<path fill="#821219" opacity="1.000000" stroke="none" 
	d="
M373.068970,472.119507 
	C373.069031,477.389221 373.069031,482.178223 373.069031,487.272339 
	C370.980499,487.272339 369.249664,487.272339 367.060059,487.272339 
	C367.060059,481.318359 367.117981,475.550079 367.043488,469.783539 
	C366.971405,464.204712 363.383789,460.527618 358.246094,460.594269 
	C353.702545,460.653229 350.712128,464.209106 350.638519,469.839783 
	C350.564850,475.473755 350.622345,481.109467 350.622345,487.289703 
	C348.738007,487.400696 347.013092,487.502289 344.980652,487.622009 
	C344.980652,480.058929 344.400360,472.768524 345.146667,465.616547 
	C345.868225,458.701569 352.128967,454.453918 359.115204,454.836395 
	C366.818054,455.258057 371.989532,459.653900 372.899445,466.663025 
	C373.112122,468.301392 373.020538,469.979187 373.068970,472.119507 
z"/>
<path fill="#800D14" opacity="1.000000" stroke="none" 
	d="
M390.092163,461.095215 
	C387.112549,460.809601 385.506409,461.232391 385.744202,464.448547 
	C386.025604,468.255219 386.036926,472.115753 385.750793,475.921814 
	C385.400208,480.585175 387.416992,482.350464 391.879211,481.966919 
	C393.492859,481.828247 395.128448,481.944641 396.966583,481.944641 
	C396.966583,483.954010 396.966583,485.527679 396.966583,487.543488 
	C394.275635,487.543488 391.804352,487.642548 389.343628,487.523804 
	C383.414398,487.237671 380.014099,484.076904 379.898865,478.127930 
	C379.699280,467.823364 379.843445,457.512207 379.843445,446.862030 
	C381.769348,446.862030 383.494293,446.862030 385.604065,446.862030 
	C385.604065,449.477997 385.604065,452.066772 385.604065,455.244476 
	C389.496613,455.244476 393.048187,455.244476 396.966919,455.244476 
	C397.067566,457.389618 397.141296,458.961609 397.241333,461.094635 
	C394.804260,461.094635 392.687012,461.094635 390.092163,461.095215 
z"/>
<path fill="#800D14" opacity="1.000000" stroke="none" 
	d="
M257.490295,456.223022 
	C260.984100,455.838989 264.095856,455.565125 267.636780,455.253479 
	C267.789551,457.274567 267.906799,458.826050 267.935638,459.207489 
	C262.972229,461.521759 258.416473,463.144501 254.500534,465.734528 
	C253.062912,466.685364 252.603928,469.930603 252.626358,472.119751 
	C252.690933,478.421509 256.280029,480.760925 267.708801,482.450043 
	C267.708801,483.982697 267.708801,485.546692 267.708801,487.074463 
	C257.263824,488.558502 249.425797,484.483978 246.990509,476.470276 
	C244.399994,467.945831 247.999146,460.782562 257.490295,456.223022 
z"/>
<path fill="#050505" opacity="1.000000" stroke="none" 
	d="
M332.067841,212.450333 
	C329.445343,212.450333 326.822845,212.450333 323.791718,212.450333 
	C323.620453,215.453552 323.473328,218.033691 323.314178,220.824402 
	C320.287689,220.824402 317.363373,220.824402 314.153809,220.824402 
	C314.153809,212.412415 314.153809,204.053314 314.153809,195.422501 
	C317.147552,195.422501 320.040466,195.422501 323.255920,195.422501 
	C323.415771,198.095291 323.571411,200.697861 323.761963,203.884186 
	C326.290680,203.884186 328.722290,203.884186 331.583679,203.903229 
	C332.013428,203.922287 331.936493,203.952271 331.974335,204.423798 
	C331.987549,207.452408 331.962921,210.009491 331.982300,212.550461 
	C332.026276,212.534348 332.067841,212.450333 332.067841,212.450333 
z"/>
<path fill="#821219" opacity="1.000000" stroke="none" 
	d="
M226.872589,470.005066 
	C226.872589,465.044739 226.872589,460.582611 226.872589,455.051422 
	C229.290909,455.686768 231.212845,456.191681 234.351807,457.016327 
	C236.080292,456.451813 239.394470,455.369446 243.318878,454.087738 
	C243.318878,456.670288 243.318878,458.349823 243.314056,460.033569 
	C234.197632,462.496216 232.816864,464.291443 232.775772,473.807526 
	C232.757156,478.116699 232.772644,482.426025 232.772644,487.299255 
	C230.941803,487.402405 229.236496,487.498505 226.872604,487.631714 
	C226.872604,481.653748 226.872604,476.078522 226.872589,470.005066 
z"/>
<path fill="#050505" opacity="1.000000" stroke="none" 
	d="
M252.092194,151.071686 
	C252.598511,151.007248 252.498169,150.971115 252.640808,151.384171 
	C252.783463,157.214218 252.783463,162.631210 252.783463,168.438934 
	C249.529831,168.438934 246.739151,168.438934 243.964691,168.476257 
	C243.980927,168.513565 244.043777,168.565292 244.043777,168.565292 
	C244.043777,165.931885 244.043777,163.298477 244.043777,160.227905 
	C241.013824,160.227905 238.129257,160.227905 234.862732,160.227905 
	C234.862732,157.112198 234.862732,154.425964 234.862732,151.136108 
	C240.474487,151.136108 246.030197,151.136108 252.092194,151.071686 
z"/>
<path fill="#0D0D0D" opacity="1.000000" stroke="none" 
	d="
M217.443680,203.942444 
	C217.443680,203.942444 217.523407,204.007263 217.563568,204.039337 
	C217.436783,201.312866 217.269852,198.554306 217.059509,195.078735 
	C225.964035,195.078735 234.366089,195.078735 243.138626,194.849442 
	C243.509094,194.620148 243.488297,194.573547 243.488312,194.573547 
	C243.690735,197.416046 243.893173,200.258545 244.031082,203.531937 
	C243.966553,203.962830 244.059982,203.946091 243.587555,203.949677 
	C234.557983,203.949646 226.000824,203.946045 217.443680,203.942444 
z"/>
<path fill="#050505" opacity="1.000000" stroke="none" 
	d="
M332.032135,212.955688 
	C332.067841,212.450333 332.026276,212.534348 332.426575,212.478210 
	C335.219879,212.466125 337.612854,212.510162 339.999512,212.701355 
	C339.993195,212.848511 340.225403,213.029388 340.225403,213.029388 
	C340.225403,213.029388 340.500397,212.925201 340.500397,212.925201 
	C340.645721,215.398102 340.791046,217.871002 340.964294,220.818848 
	C343.441376,220.818848 345.995789,220.818848 348.793945,220.818848 
	C348.793945,223.866333 348.793945,226.455338 348.793945,229.418152 
	C343.503723,229.418152 338.132660,229.418152 331.996429,229.418152 
	C331.996429,224.238800 331.996429,218.849915 332.032135,212.955688 
z"/>
<path fill="#181818" opacity="1.000000" stroke="none" 
	d="
M243.607697,168.450043 
	C244.043777,168.565292 243.980927,168.513565 244.038818,168.976730 
	C244.046021,174.985901 243.995331,180.531906 243.929977,186.039871 
	C243.915314,186.001831 243.976532,185.947983 243.976532,185.947983 
	C241.003860,185.947983 238.031189,185.947983 234.731888,185.947983 
	C234.731888,179.997345 234.731888,174.448441 234.731888,168.334778 
	C237.636703,168.334778 240.404144,168.334778 243.607697,168.450043 
z"/>
<path fill="#040404" opacity="1.000000" stroke="none" 
	d="
M348.587097,239.524200 
	C348.913300,245.162628 348.913300,250.462143 348.913300,256.080780 
	C346.268250,256.080780 343.740753,256.080780 340.947876,256.080780 
	C340.947876,250.565948 340.947876,245.146179 340.947876,239.185287 
	C343.396484,239.185287 345.828705,239.185287 348.587097,239.524200 
z"/>
<path fill="#181818" opacity="1.000000" stroke="none" 
	d="
M317.305725,229.399536 
	C319.498352,229.399323 321.265442,229.399323 323.314026,229.399323 
	C323.314026,232.765045 323.314026,235.642746 323.314026,238.826218 
	C320.211243,238.826218 317.180420,238.826218 313.410522,238.826218 
	C315.872528,235.881119 310.001251,230.779053 317.305725,229.399536 
z"/>
<path fill="#131313" opacity="1.000000" stroke="none" 
	d="
M270.092194,176.779251 
	C273.052368,176.779251 276.012573,176.779251 279.275024,176.779251 
	C279.275024,179.963654 279.275024,182.678757 279.275024,185.612091 
	C276.235901,185.612091 273.474304,185.612091 269.880127,185.612091 
	C269.880127,182.976364 269.880127,180.252380 270.018433,177.120453 
	C270.156738,176.712509 270.092194,176.779251 270.092194,176.779251 
z"/>
<path fill="#080808" opacity="1.000000" stroke="none" 
	d="
M305.631622,264.399719 
	C305.941986,264.693634 306.001678,264.625061 306.052826,264.598572 
	C303.167358,264.788940 300.230743,265.005829 296.973145,265.246429 
	C296.973145,262.141937 296.973145,259.426483 296.973145,256.491760 
	C299.585846,256.491760 302.017029,256.491760 305.321259,256.491760 
	C305.321259,258.995117 305.321259,261.550446 305.631622,264.399719 
z"/>
<path fill="#080808" opacity="1.000000" stroke="none" 
	d="
M243.936859,212.443329 
	C243.936859,212.443329 244.003708,212.497421 244.011047,212.047485 
	C244.032242,209.047058 244.046112,206.496567 244.059998,203.946091 
	C244.059982,203.946091 243.966553,203.962830 243.934448,203.997330 
	C246.695587,204.031830 249.488861,204.031830 252.814011,204.031830 
	C252.814011,206.689316 252.814011,209.138672 252.879578,212.071457 
	C252.945160,212.554886 252.976639,212.460739 252.569839,212.408600 
	C249.420975,212.385437 246.678925,212.414383 243.936859,212.443329 
z"/>
<path fill="#080808" opacity="1.000000" stroke="none" 
	d="
M252.946793,185.976959 
	C252.946793,188.871994 252.946793,191.767044 252.946793,195.180649 
	C249.789276,195.180649 247.079346,195.180649 243.928864,194.877106 
	C243.488297,194.573547 243.509094,194.620148 243.520996,194.619400 
	C243.692749,192.028885 243.852615,189.439117 243.994507,186.398666 
	C243.976532,185.947983 243.915314,186.001831 244.359253,185.866119 
	C247.563431,185.850281 250.323654,185.970123 253.050690,186.060394 
	C253.017517,186.030823 252.946793,185.976959 252.946793,185.976959 
z"/>
<path fill="#282829" opacity="1.000000" stroke="none" 
	d="
M340.985474,212.913651 
	C340.500397,212.925201 340.225403,213.029388 340.225403,213.029388 
	C340.225403,213.029388 339.993195,212.848511 340.227905,212.264038 
	C340.486847,209.099808 340.511108,206.520020 340.561523,203.969788 
	C340.587646,203.999344 340.519287,204.038773 340.519287,204.038773 
	C343.165527,204.038773 345.811737,204.038773 348.793579,204.038773 
	C348.793579,206.863052 348.793579,209.582855 348.793579,212.902100 
	C346.352875,212.902100 343.911713,212.902100 340.985474,212.913651 
z"/>
<path fill="#181818" opacity="1.000000" stroke="none" 
	d="
M269.949646,168.029724 
	C269.954956,170.650482 269.988708,173.301117 270.057312,176.365509 
	C270.092194,176.779251 270.156738,176.712509 270.193787,176.670135 
	C267.446350,176.802002 264.661896,176.976257 261.473022,177.061218 
	C261.068634,176.971924 261.040466,177.059769 261.075073,176.609863 
	C261.109680,173.648102 261.109680,171.136276 261.109680,168.576279 
	C264.598663,168.361740 267.326111,168.194031 270.053528,168.026321 
	C270.053528,168.026321 269.978058,168.059601 269.949646,168.029724 
z"/>
<path fill="#131313" opacity="1.000000" stroke="none" 
	d="
M340.638428,203.598343 
	C340.519287,204.038773 340.587646,203.999344 340.078430,203.973877 
	C337.024963,203.949692 334.480743,203.950989 331.936493,203.952271 
	C331.936493,203.952271 332.013428,203.922287 332.041321,203.951675 
	C332.069244,201.191162 332.069244,198.401276 332.069244,195.365082 
	C334.920135,195.365082 337.507172,195.365082 340.757599,195.365082 
	C340.757599,197.985992 340.757599,200.571945 340.638428,203.598343 
z"/>
<path fill="#000000" opacity="1.000000" stroke="none" 
	d="
M340.907410,274.141174 
	C341.067871,273.674652 341.009735,273.732635 340.990967,273.768616 
	C343.401031,273.578339 345.829834,273.352051 348.664612,273.087952 
	C348.664612,276.519043 348.664612,279.542480 348.664612,282.789307 
	C346.243378,282.789307 343.812408,282.789307 340.746979,282.789307 
	C340.746979,280.085266 340.746979,277.346466 340.907410,274.141174 
z"/>
<path fill="#080808" opacity="1.000000" stroke="none" 
	d="
M261.031494,176.944580 
	C260.994354,179.663208 260.994354,182.409195 260.994354,185.816376 
	C258.603333,185.816376 256.223450,185.816376 253.395203,185.896667 
	C252.946793,185.976959 253.017517,186.030823 252.916321,185.610168 
	C252.815109,182.596497 252.815109,180.003464 252.815109,177.059769 
	C255.828491,177.059769 258.434479,177.059769 261.040466,177.059769 
	C261.040466,177.059769 261.068634,176.971924 261.031494,176.944580 
z"/>
<path fill="#000000" opacity="1.000000" stroke="none" 
	d="
M279.499512,248.373260 
	C279.584106,247.931870 279.506042,247.987686 279.461060,248.010818 
	C282.164154,248.033951 284.912231,248.033951 287.859375,248.033951 
	C287.859375,250.842957 287.859375,253.393784 287.859375,256.166962 
	C285.140350,256.166962 282.588135,256.166962 279.414917,256.166962 
	C279.414917,253.622910 279.414917,251.218781 279.499512,248.373260 
z"/>
<path fill="#000000" opacity="1.000000" stroke="none" 
	d="
M348.694092,299.866394 
	C346.084198,300.261169 343.761749,300.261169 341.071228,300.261169 
	C341.071228,297.664673 341.071228,295.091858 341.071228,292.172791 
	C343.419342,292.172791 345.970825,292.172791 348.981506,292.172791 
	C348.981506,294.580963 348.981506,297.026306 348.694092,299.866394 
z"/>
<path fill="#D03135" opacity="1.000000" stroke="none" 
	d="
M224.342957,88.103645 
	C224.174667,87.309311 224.198547,86.416519 224.439697,85.261200 
	C224.722122,85.692871 224.787277,86.387047 224.879913,87.433723 
	C224.907394,87.786217 224.535141,88.005180 224.342957,88.103645 
z"/>
<path fill="#D92C2E" opacity="1.000000" stroke="none" 
	d="
M492.612305,60.746601 
	C492.025208,61.039948 491.320404,61.035366 490.260071,61.008545 
	C489.904541,60.986305 489.916870,60.527134 489.941711,60.298809 
	C490.809235,60.196548 491.651947,60.322613 492.612305,60.746601 
z"/>
<path fill="#D92C2E" opacity="1.000000" stroke="none" 
	d="
M27.075329,60.750641 
	C26.677616,61.013092 26.274548,61.037933 25.569872,61.055344 
	C25.659218,60.698067 26.050171,60.348221 26.730518,60.019356 
	C27.019913,60.040340 27.069969,60.513035 27.075329,60.750641 
z"/>
<path fill="#DFEFFD" opacity="1.000000" stroke="none" 
	d="
M291.944580,61.033791 
	C269.921326,60.971458 247.961319,60.975681 225.537384,60.982533 
	C225.073471,60.985161 224.944748,61.168179 224.954285,60.863022 
	C224.941528,60.363571 224.919250,60.169277 224.896973,59.974987 
	C227.962326,47.757690 230.967590,35.524841 234.124008,23.331116 
	C235.304337,18.771317 236.719376,14.260464 238.311996,9.829590 
	C238.615585,8.984949 240.248764,8.124257 241.279068,8.111308 
	C251.412979,7.983941 261.551697,7.929214 271.681213,8.175282 
	C272.867950,8.204112 274.604187,9.954176 275.076965,11.269009 
	C279.805786,24.420506 284.328583,37.646164 288.895660,50.855694 
	C289.869202,53.671402 290.787109,56.506359 291.877686,59.928741 
	C292.078125,60.700840 292.131592,60.876637 292.185028,61.052433 
	C292.185028,61.052433 292.007812,61.100346 291.944580,61.033791 
z"/>
<path fill="#DFEFFD" opacity="1.000000" stroke="none" 
	d="
M425.032043,60.607864 
	C403.167450,60.941322 381.190430,60.948521 358.765381,60.950302 
	C358.317383,60.944881 358.145172,61.043747 358.126923,60.789795 
	C358.017761,60.160950 357.780182,59.956551 357.395905,59.922638 
	C347.219482,48.489273 337.062836,37.038181 326.858154,25.630104 
	C321.839569,20.019676 316.731903,14.488914 310.854767,8.032503 
	C320.375427,8.032503 328.930206,8.401061 337.436340,7.916118 
	C344.265564,7.526774 349.820374,9.327537 355.393372,13.337493 
	C369.745056,23.664000 384.452087,33.500637 399.105072,43.402901 
	C407.622314,49.158749 416.309143,54.663731 425.032043,60.607864 
z"/>
<path fill="#DFEFFD" opacity="1.000000" stroke="none" 
	d="
M158.614258,60.938774 
	C136.562592,60.913158 114.613541,60.927837 92.175232,60.920845 
	C102.376183,53.338688 113.100967,45.826534 123.747597,38.205204 
	C136.384537,29.159126 148.863983,19.889046 161.630417,11.031310 
	C164.134048,9.294218 167.610031,8.272390 170.681046,8.165048 
	C180.767090,7.812505 190.873169,8.032503 201.731064,8.032503 
	C187.394424,25.535484 173.576645,42.405010 159.397217,59.692009 
	C158.785721,60.363457 158.752289,60.643303 158.935242,60.949017 
	C158.935242,60.949017 158.716858,60.979065 158.614258,60.938774 
z"/>
<path fill="#D92C2E" opacity="1.000000" stroke="none" 
	d="
M356.901306,59.948147 
	C357.780182,59.956551 358.017761,60.160950 358.029175,60.772255 
	C336.332428,61.016632 314.715179,61.024590 292.641479,61.042488 
	C292.131592,60.876637 292.078125,60.700840 292.056000,60.251205 
	C313.527130,59.976131 334.966949,59.974895 356.901306,59.948147 
z"/>
<path fill="#D03135" opacity="1.000000" stroke="none" 
	d="
M159.408081,60.958923 
	C158.752289,60.643303 158.785721,60.363457 159.240265,60.012558 
	C180.954544,59.946888 202.464142,59.978138 224.435349,59.992188 
	C224.919250,60.169277 224.941528,60.363571 224.848251,60.827324 
	C203.115448,61.054131 181.498184,61.011478 159.408081,60.958923 
z"/>
<path fill="#D92C2E" opacity="1.000000" stroke="none" 
	d="
M487.766022,60.698177 
	C468.011292,60.987072 447.945221,60.988342 427.401794,60.987446 
	C428.160187,60.660297 429.395020,60.056133 430.631744,60.052254 
	C448.927216,59.994801 467.222900,60.013023 485.518524,60.036766 
	C486.164062,60.037601 486.809296,60.280487 487.766022,60.698177 
z"/>
<path fill="#D92C2E" opacity="1.000000" stroke="none" 
	d="
M89.764275,60.697861 
	C70.009644,60.986805 49.943699,60.988335 29.400234,60.987835 
	C30.158127,60.660393 31.392666,60.055416 32.629086,60.051548 
	C50.924854,59.994267 69.220879,60.012772 87.516808,60.036755 
	C88.162354,60.037601 88.807587,60.280411 89.764275,60.697861 
z"/>
<path fill="#F3F0F1" opacity="1.000000" stroke="none" 
	d="
M178.678238,374.666138 
	C181.602295,383.940094 179.469681,391.757111 172.824341,397.057953 
	C166.258774,402.295166 157.066833,402.827606 149.008423,397.634399 
	C142.603653,393.506836 140.309540,387.112976 140.872238,379.465393 
	C141.619171,369.313538 155.434860,359.074402 165.214294,362.431488 
	C171.069534,364.441467 175.850998,368.368256 178.678238,374.666138 
z"/>
<path fill="#F3EFF1" opacity="1.000000" stroke="none" 
	d="
M345.761017,364.535522 
	C350.842194,361.484772 355.634766,361.184296 360.163269,364.715424 
	C363.865082,367.601959 368.424347,370.089020 370.757507,373.887207 
	C375.862030,382.196899 372.286865,394.259552 364.485809,398.409668 
	C353.409637,404.302063 342.145142,401.903381 336.418457,392.432861 
	C331.076660,383.598785 333.674072,372.286102 342.410492,366.460632 
	C343.375214,365.817352 344.452606,365.343048 345.761017,364.535522 
z"/>
<path fill="#E8E8E9" opacity="1.000000" stroke="none" 
	d="
M244.385559,256.452576 
	C243.938065,250.973175 243.938065,245.373734 243.938065,239.361694 
	C249.748444,239.361694 255.132202,239.361694 261.053070,239.361694 
	C261.053070,236.110748 261.053070,233.244919 261.053070,230.075134 
	C264.154572,230.075134 266.731354,230.075134 269.945770,230.075134 
	C269.945770,235.665939 269.945770,241.399139 270.006744,247.601654 
	C264.460205,248.070999 258.852722,248.070999 252.880081,248.070999 
	C252.880081,250.690506 252.880081,253.109482 252.880081,256.332520 
	C249.976181,256.332520 247.404602,256.332520 244.385559,256.452576 
z"/>
<path fill="#E4E4E5" opacity="1.000000" stroke="none" 
	d="
M253.323547,282.798431 
	C258.613525,282.798431 263.903503,282.798431 269.572693,282.798431 
	C269.572693,286.040039 269.572693,288.719574 269.572693,291.874390 
	C264.348114,291.874390 259.230072,291.874390 253.696106,291.962158 
	C253.280182,292.049927 253.365417,292.103485 253.406769,292.143982 
	C253.285675,289.301117 253.123245,286.417786 253.177612,283.147125 
	C253.394394,282.759796 253.323547,282.798431 253.323547,282.798431 
z"/>
<path fill="#E8E8E9" opacity="1.000000" stroke="none" 
	d="
M253.421661,282.730042 
	C250.524673,282.888550 247.600418,283.076813 244.356674,283.285614 
	C244.356674,280.053497 244.356674,277.186279 244.356674,273.994324 
	C247.040695,273.994324 249.702194,273.994324 252.837677,273.994324 
	C252.837677,276.863464 252.837677,279.458893 253.080612,282.426361 
	C253.323547,282.798431 253.394394,282.759796 253.421661,282.730042 
z"/>
<path fill="#DCDCDD" opacity="1.000000" stroke="none" 
	d="
M284.971558,283.116180 
	C286.304962,284.091370 287.664642,284.941986 287.958344,286.070068 
	C288.392914,287.739532 288.070679,289.606049 288.070679,291.634399 
	C285.127228,291.634399 282.573761,291.634399 279.718506,291.634399 
	C279.718506,288.931702 279.718506,286.363892 279.718506,283.372192 
	C281.361145,283.284485 282.941071,283.200104 284.971558,283.116180 
z"/>
<path fill="#DCDCDD" opacity="1.000000" stroke="none" 
	d="
M304.936951,283.193756 
	C307.691315,283.214661 310.486969,283.214661 313.605499,283.214661 
	C313.605499,286.011108 313.605499,288.584259 313.605499,291.524292 
	C311.121735,291.524292 308.554108,291.524292 305.173767,291.524292 
	C305.173767,289.096252 305.173767,286.519989 305.097870,283.517456 
	C305.021973,283.091125 304.978302,283.172852 304.936951,283.193756 
z"/>
<path fill="#DCDCDD" opacity="1.000000" stroke="none" 
	d="
M287.659241,220.650360 
	C284.877716,220.971985 282.434387,220.971985 279.709198,220.971985 
	C279.709198,218.216614 279.709198,215.672836 279.709198,212.774139 
	C282.313416,212.774139 284.843964,212.774139 287.997437,212.774139 
	C287.997437,215.230759 287.997437,217.779739 287.659241,220.650360 
z"/>
<path fill="#DCDCDD" opacity="1.000000" stroke="none" 
	d="
M261.292664,211.803360 
	C261.846161,212.018326 262.432037,212.362411 263.034363,212.394043 
	C270.448578,212.783371 270.449188,212.771576 269.570068,220.804642 
	C267.028442,220.804642 264.448975,220.804642 261.207214,220.804642 
	C261.207214,218.139389 261.207214,215.416153 261.284515,212.199463 
	C261.361816,211.705994 261.332733,211.787277 261.292664,211.803360 
z"/>
<path fill="#DCDCDD" opacity="1.000000" stroke="none" 
	d="
M243.979446,212.925735 
	C246.678925,212.414383 249.420975,212.385437 252.619095,212.402573 
	C252.938187,215.079041 252.801224,217.709427 252.628601,221.024506 
	C250.015152,221.024506 247.434448,221.024506 244.395355,221.043274 
	C243.965317,218.510757 243.993668,215.959442 243.979446,212.925735 
z"/>
<path fill="#F3EFF1" opacity="1.000000" stroke="none" 
	d="
M243.587555,203.949677 
	C244.046112,206.496567 244.032242,209.047058 244.037186,212.081604 
	C235.272385,212.565674 226.488785,212.565674 217.330688,212.565674 
	C217.330688,209.498749 217.330688,207.195496 217.387177,204.417328 
	C226.000824,203.946045 234.557983,203.949646 243.587555,203.949677 
z"/>
<path fill="#DCDCDD" opacity="1.000000" stroke="none" 
	d="
M209.223053,220.610016 
	C206.394943,220.777710 203.525330,220.966522 200.223801,221.183746 
	C200.223801,218.044617 200.223801,215.340576 200.307892,212.215363 
	C200.391968,211.794189 200.297256,211.813675 200.297256,211.813675 
	C203.020020,212.163940 205.742798,212.514206 208.848129,212.913681 
	C208.848129,215.370087 208.848129,217.667374 208.999664,220.341919 
	C209.151215,220.719162 209.181580,220.631134 209.223053,220.610016 
z"/>
<path fill="#F2F2F3" opacity="1.000000" stroke="none" 
	d="
M200.415024,211.751694 
	C197.400665,212.002579 194.363251,212.295975 190.962097,212.624496 
	C190.962097,209.543671 190.962097,207.010742 190.962097,204.206284 
	C193.799469,204.206284 196.678665,204.206284 200.069962,204.206284 
	C200.069962,206.496933 200.069962,208.740433 200.183609,211.398804 
	C200.297256,211.813675 200.391968,211.794189 200.415024,211.751694 
z"/>
<path fill="#ECECED" opacity="1.000000" stroke="none" 
	d="
M217.047104,257.402466 
	C217.196793,271.815582 217.196793,285.780792 217.196793,300.025421 
	C202.507736,300.025421 188.129379,300.025421 173.520813,300.025421 
	C173.520813,285.507141 173.520813,271.254028 173.520813,256.380920 
	C180.985535,256.380920 188.266281,256.306305 195.544785,256.402161 
	C202.663513,256.495880 209.779968,256.763336 217.047104,257.402466 
M181.974930,285.402008 
	C181.974930,287.484222 181.974930,289.566437 181.974930,291.467529 
	C191.323792,291.467529 200.003799,291.467529 208.560913,291.467529 
	C208.560913,282.488220 208.560913,273.921356 208.560913,265.291840 
	C199.597443,265.291840 190.902603,265.291840 181.974930,265.291840 
	C181.974930,271.856934 181.974930,278.139160 181.974930,285.402008 
z"/>
<path fill="#EDEDED" opacity="1.000000" stroke="none" 
	d="
M296.772278,172.920471 
	C296.772217,159.477692 296.772217,146.526001 296.772217,133.322968 
	C311.398346,133.322968 325.658691,133.322968 340.312286,133.322968 
	C340.312286,147.619720 340.312286,161.987534 340.312286,177.033264 
	C334.673584,177.033264 328.924652,177.033279 323.175751,177.033249 
	C315.517944,177.033218 307.856110,176.890427 300.204315,177.104645 
	C297.223663,177.188080 296.340027,176.111023 296.772278,172.920471 
M324.383057,168.506638 
	C326.836670,168.506638 329.290283,168.506638 331.682678,168.506638 
	C331.682678,159.282166 331.682678,150.575729 331.682678,142.041992 
	C322.748779,142.041992 314.167206,142.041992 305.381104,142.041992 
	C305.381104,150.864258 305.381104,159.415573 305.381104,168.506607 
	C311.529907,168.506607 317.472321,168.506607 324.383057,168.506638 
z"/>
<path fill="#EDEDED" opacity="1.000000" stroke="none" 
	d="
M173.295837,171.808563 
	C173.295837,158.719650 173.295837,146.111603 173.295837,133.289246 
	C188.057388,133.289246 202.307678,133.289246 216.893417,133.289246 
	C216.893417,147.718506 216.893417,162.097595 216.893417,176.756119 
	C202.588470,176.756119 188.197083,176.756119 173.514374,176.756119 
	C173.438263,175.200470 173.367050,173.744965 173.295837,171.808563 
M182.213242,167.951996 
	C190.935104,167.951996 199.656967,167.951996 208.450989,167.951996 
	C208.450989,159.314865 208.450989,150.654190 208.450989,142.005951 
	C199.489807,142.005951 190.916672,142.005951 181.987045,142.005951 
	C181.987045,150.507507 181.987045,158.779785 182.213242,167.951996 
z"/>
<path fill="#ECECED" opacity="1.000000" stroke="none" 
	d="
M261.075073,176.609863 
	C258.434479,177.059769 255.828491,177.059769 252.815109,177.059769 
	C252.815109,180.003464 252.815109,182.596497 252.949493,185.639740 
	C250.323654,185.970123 247.563431,185.850281 244.373932,185.904175 
	C243.995331,180.531906 244.046021,174.985901 244.022598,168.939423 
	C246.739151,168.438934 249.529831,168.438934 252.783463,168.438934 
	C252.783463,162.631210 252.783463,157.214218 252.594177,151.358337 
	C257.997925,150.919434 263.591003,150.919434 269.939270,150.919434 
	C269.939270,156.671478 269.939270,161.882614 269.996399,167.560028 
	C267.326111,168.194031 264.598663,168.361740 261.109680,168.576279 
	C261.109680,171.136276 261.109680,173.648102 261.075073,176.609863 
z"/>
<path fill="#DCDCDD" opacity="1.000000" stroke="none" 
	d="
M269.958160,135.177872 
	C269.963745,137.457260 269.963745,139.279129 269.963745,141.458969 
	C267.172516,141.458969 264.596466,141.458969 261.592163,141.458969 
	C261.592163,139.025177 261.592163,136.453033 261.592163,132.532196 
	C264.392151,133.265045 267.172363,133.992706 269.958160,135.177872 
z"/>
<path fill="#F2F2F3" opacity="1.000000" stroke="none" 
	d="
M279.963226,456.985962 
	C279.937866,457.372986 279.719879,457.583252 279.501923,457.793518 
	C279.388153,457.511444 279.274384,457.229370 279.254395,456.724121 
	C279.488983,456.603699 279.629791,456.706421 279.963226,456.985962 
z"/>
<path fill="#E8E8E9" opacity="1.000000" stroke="none" 
	d="
M331.974335,204.423798 
	C334.480743,203.950989 337.024963,203.949692 340.052307,203.944336 
	C340.511108,206.520020 340.486847,209.099808 340.234222,212.116898 
	C337.612854,212.510162 335.219879,212.466125 332.382568,212.494324 
	C331.962921,210.009491 331.987549,207.452408 331.974335,204.423798 
z"/>
<path fill="#040404" opacity="1.000000" stroke="none" 
	d="
M181.974930,284.911682 
	C181.974930,278.139160 181.974930,271.856934 181.974930,265.291840 
	C190.902603,265.291840 199.597443,265.291840 208.560913,265.291840 
	C208.560913,273.921356 208.560913,282.488220 208.560913,291.467529 
	C200.003799,291.467529 191.323792,291.467529 181.974930,291.467529 
	C181.974930,289.566437 181.974930,287.484222 181.974930,284.911682 
z"/>
<path fill="#070707" opacity="1.000000" stroke="none" 
	d="
M323.898895,168.506622 
	C317.472321,168.506607 311.529907,168.506607 305.381104,168.506607 
	C305.381104,159.415573 305.381104,150.864258 305.381104,142.041992 
	C314.167206,142.041992 322.748779,142.041992 331.682678,142.041992 
	C331.682678,150.575729 331.682678,159.282166 331.682678,168.506638 
	C329.290283,168.506638 326.836670,168.506638 323.898895,168.506622 
z"/>
<path fill="#070707" opacity="1.000000" stroke="none" 
	d="
M182.100143,167.502014 
	C181.987045,158.779785 181.987045,150.507507 181.987045,142.005951 
	C190.916672,142.005951 199.489807,142.005951 208.450989,142.005951 
	C208.450989,150.654190 208.450989,159.314865 208.450989,167.951996 
	C199.656967,167.951996 190.935104,167.951996 182.100143,167.502014 
z"/>
</svg>